# xmcd
#
# Track frame offsets: 
#        150
#        13956
#        26757
#        45154
#        62565
#        80566
#        96075
#        118861
#        134121
#        147338
#        163677
#        180836
#        197562
#
# Disc length: 2993 seconds
#
# Revision: 2
# Processed by: cddbd v1.5.2PL0 Copyright (c) Steve Scherf et al.
# Submitted via: ExactAudioCopyFreeDBPlugin 1.0
#
DISCID=b00baf0d
DTITLE=小野リサ - Look To The Rainbow -Jazz Standards From L.A.-
DYEAR=2009
DGENRE=Jazz
TTITLE0=1. I'm Beginning To See The Light
TTITLE1=2. Honeysuckle Rose
TTITLE2=3. Moonglow
TTITLE3=4. My Funny Valentine
TTITLE4=5. Goody Goody
TTITLE5=6. Don't Know Why
TTITLE6=Here's That Rainy Day
TTITLE7=8. It's Only A Paper Moon
TTITLE8=9. Moonlight Serenade
TTITLE9=10. You'd Be So Nice To Come Home To
TTITLE10=11. The Shadow Of Your Smile
TTITLE11=12. On A Clear Day
TTITLE12=13. Look To The Rainbow
EXTD=YEAR: 2009
EXTT0=
EXTT1=
EXTT2=
EXTT3=
EXTT4=
EXTT5=
EXTT6=
EXTT7=
EXTT8=
EXTT9=
EXTT10=
EXTT11=
EXTT12=
PLAYORDER=
